<svg id="gmail_icon" data-name="gmail icon" xmlns="http://www.w3.org/2000/svg" width="16.024" height="12.207" viewBox="0 0 16.024 12.207">
  <g id="Group_45" data-name="Group 45" transform="translate(1.045 0)">
    <path id="Path_47" data-name="Path 47" d="M47.512,122.808,46.489,133.08H34.2l-.824-10.073,6.967,3.9Z" transform="translate(-33.379 -120.873)" fill="#99d5be"/>
    <path id="Path_48" data-name="Path 48" d="M51.752,60.983l-6.819,6.406-6.819-6.406H51.752Z" transform="translate(-37.966 -60.983)" fill="#99d5be"/>
  </g>
  <path id="Path_49" data-name="Path 49" d="M1.869,113.329v9.249H.755A.756.756,0,0,1,0,121.823v-9.856L1.221,112Z" transform="translate(0 -110.371)" fill="#97aabd"/>
  <path id="Path_50" data-name="Path 50" d="M454.157,109.062v9.856a.756.756,0,0,1-.756.755h-1.113v-9.249l.616-1.456Z" transform="translate(-438.133 -107.466)" fill="#97aabd"/>
  <path id="Path_51" data-name="Path 51" d="M16.024,61.738v.84l-1.869,1.362L8.012,68.418,1.869,63.941,0,62.579v-.84a.756.756,0,0,1,.755-.755h.437l6.819,4.97,6.819-4.97h.437A.756.756,0,0,1,16.024,61.738Z" transform="translate(0 -60.983)" fill="#97aabd"/>
  <path id="Path_52" data-name="Path 52" d="M1.869,113.329,0,113.039v-1.072Z" transform="translate(0 -110.371)" fill="#97aabd"/>
</svg>
