<svg xmlns="http://www.w3.org/2000/svg" width="27.898" height="20.833" viewBox="0 0 27.898 20.833">
  <g id="Home" transform="translate(-120.56 -2.447)">
    <circle id="Ellipse_7" data-name="Ellipse 7" cx="8" cy="8" r="8" transform="translate(120.56 5.459)" fill="#2a966e" opacity="0.5"/>
    <g id="Iconly_Bold_Home" data-name="Iconly/Bold/Home" transform="translate(126.063 0.363)">
      <g id="Home-2" data-name="Home" transform="translate(2.604 2.083)">
        <path id="Home-3" data-name="Home" d="M6.911,19.556V16.37A1.478,1.478,0,0,1,8.394,14.9h2.994a1.488,1.488,0,0,1,1.049.431,1.467,1.467,0,0,1,.434,1.041v3.185a1.264,1.264,0,0,0,.371.9,1.283,1.283,0,0,0,.907.375h2.043a3.6,3.6,0,0,0,2.545-1.041,3.552,3.552,0,0,0,1.055-2.524V8.195a2.576,2.576,0,0,0-.933-1.981L11.91.7A3.226,3.226,0,0,0,7.8.778L1.007,6.213A2.577,2.577,0,0,0,0,8.195v9.065a3.587,3.587,0,0,0,3.6,3.574h2a1.283,1.283,0,0,0,1.287-1.268Z" transform="translate(0 0)" fill="#2a966e"/>
      </g>
    </g>
  </g>
</svg>
