<svg id="Iconly_Bold_Notification" data-name="Iconly/Bold/Notification" xmlns="http://www.w3.org/2000/svg" width="17.708" height="20.833" viewBox="0 0 17.708 20.833">
  <g id="Notification" transform="translate(0 0)">
    <path id="Notification-2" data-name="Notification" d="M8.316,20.8a3.77,3.77,0,0,1-1.785-.763,1.616,1.616,0,0,1-.725-1.222c0-.525.481-.765.926-.868a27.036,27.036,0,0,1,4.215,0c.445.1.926.343.926.868a1.618,1.618,0,0,1-.724,1.222,3.787,3.787,0,0,1-1.784.762,4.162,4.162,0,0,1-.533.035A3.82,3.82,0,0,1,8.316,20.8Zm-4.4-4.4A4.724,4.724,0,0,1,.9,14.932,3.765,3.765,0,0,1,0,12.454a3.508,3.508,0,0,1,.761-2.407A3.955,3.955,0,0,0,1.868,7.079V6.636A5.859,5.859,0,0,1,3.205,2.617,7.368,7.368,0,0,1,8.808,0H8.9A7.335,7.335,0,0,1,14.6,2.734a5.777,5.777,0,0,1,1.245,3.9v.443a4.051,4.051,0,0,0,1.106,2.968,3.5,3.5,0,0,1,.761,2.407,3.764,3.764,0,0,1-.9,2.478A4.728,4.728,0,0,1,13.789,16.4c-1.637.139-3.275.257-4.934.257A43.425,43.425,0,0,1,3.921,16.4Z" fill="#99d5be"/>
  </g>
</svg>
