<svg id="Iconly_Bold_Plus" data-name="Iconly/Bold/Plus" xmlns="http://www.w3.org/2000/svg" width="25" height="25" viewBox="0 0 25 25">
  <g id="Plus" transform="translate(2.174 2.174)">
    <path id="Plus-2" data-name="Plus" d="M15.4,21H5.6a5.616,5.616,0,0,1-4.141-1.463A5.623,5.623,0,0,1,0,15.4V5.6A5.626,5.626,0,0,1,1.455,1.455,5.626,5.626,0,0,1,5.6,0h9.8a5.641,5.641,0,0,1,4.142,1.455A5.612,5.612,0,0,1,21,5.6V15.4C21,18.96,18.96,21,15.4,21ZM6.646,9.618a.86.86,0,0,0-.871.871.88.88,0,0,0,.871.882H9.618v2.972a.871.871,0,0,0,1.743,0V11.371h2.982a.877.877,0,0,0,0-1.753H11.361V6.657a.871.871,0,1,0-1.743,0V9.618Z" transform="translate(-0.174 -0.174)" fill="#99d5be"/>
  </g>
</svg>
